<svg width="48" height="48" viewBox="0 0 48 48" fill="none" xmlns="http://www.w3.org/2000/svg">
<path d="M44.7314 44.6494L38.457 48L28.0586 31.3408C30.5204 30.8873 32.6433 29.4739 34.0273 27.501L44.7314 44.6494ZM18.4453 27.1621C19.7488 29.2033 21.8191 30.7044 24.252 31.2607L15.2012 45.7656L8.92578 42.4141L18.4453 27.1621ZM48 18.833V26.0762H34.8516C35.4107 24.8752 35.7246 23.537 35.7246 22.125C35.7246 20.9664 35.5132 19.8574 35.1289 18.833H48ZM17.5713 18.833C17.1869 19.8574 16.9746 20.9663 16.9746 22.125C16.9746 23.5371 17.2895 24.8752 17.8486 26.0762H0V18.833H17.5713ZM23.4355 13.2139C21.0604 13.9902 19.1037 15.6883 17.9873 17.8867L8.91406 3.35059L15.1885 0L23.4355 13.2139ZM38.585 10.9814L34.5098 17.5107C33.3053 15.3853 31.2959 13.7784 28.8945 13.1025L32.3105 7.63086L38.585 10.9814Z" fill="#333333"/>
</svg>
